<?xml version="1.0" encoding="utf-8"?>
<!-- Generator: Adobe Illustrator 23.0.1, SVG Export Plug-In . SVG Version: 6.00 Build 0)  -->
<svg version="1.1" id="Calque_1" xmlns="http://www.w3.org/2000/svg" xmlns:xlink="http://www.w3.org/1999/xlink" x="0px" y="0px"
	 viewBox="0 0 105 105" style="enable-background:new 0 0 105 105;" xml:space="preserve">
<style type="text/css">
	.st0{fill:#FFFFFF;}
</style>
<g>
	<path class="st0" d="M105.1,0.1c0,35,0,69.9,0,104.9c-0.6,0-1.1,0-1.7,0c-33.9,0-67.8,0-101.8,0c-0.6,0-1.1,0-1.7,0
		c0-35,0-69.9,0-104.9c0.2,0,0.4,0,0.6,0c34.4,0,68.9,0,103.3,0C104.3,0.1,104.7,0.1,105.1,0.1z M67.5,31.3c0-3.7,0-7.1,0-10.6
		c0-0.8-0.6-0.7-1.1-0.7c-3.3,0-6.6-0.1-9.8,0c-6.8,0.2-11.4,4-12.5,10.8c-0.4,2.9-0.2,5.8-0.3,8.7c0,0.5-0.1,1-0.1,1.6h-6.3
		c0,3.5,0,6.9,0,10.3c0,1,0.3,1.3,1.3,1.3c1.7-0.1,3.3,0,5.1,0c0,0.7,0,1.2,0,1.7c0,9.8,0,19.5,0,29.3c0,1.3,0.5,1.5,2.1,1.4
		c3-0.3,6.1-0.3,9.2,0c1.9,0.2,2.4,0.1,2.4-1.4c0-9.8,0-19.5,0-29.3c0-0.5,0-1,0.1-1.7c2.7,0,5.3,0,7.9,0c0.9,0,1.3-0.3,1.4-1.2
		c0.2-2.2,0.5-4.4,0.7-6.7c0.1-1.3,0.2-2.5,0.3-3.9c-0.6,0-1-0.1-1.4-0.1c-2.5,0-5,0-7.6,0c-1,0-1.4-0.2-1.3-1.3
		c0.1-1.6,0-3.2,0-4.8c0-2.6,0.9-3.5,3.5-3.5C63.1,31.3,65.2,31.3,67.5,31.3z"/>
</g>
</svg>
