<?xml version="1.0" encoding="utf-8"?>
<!-- Generator: Adobe Illustrator 23.0.1, SVG Export Plug-In . SVG Version: 6.00 Build 0)  -->
<svg version="1.1" id="Calque_1" xmlns="http://www.w3.org/2000/svg" xmlns:xlink="http://www.w3.org/1999/xlink" x="0px" y="0px"
	 viewBox="0 0 105 105" style="enable-background:new 0 0 105 105;" xml:space="preserve">
<style type="text/css">
	.st0{fill:#064C78;}
	.st1{fill:#FFFFFF;}
</style>
<g>
	<rect x="-0.12" y="0.13" class="st0" width="104.99" height="104.99"/>
	<g>
		<rect x="23.62" y="42.77" class="st1" width="12.65" height="38.06"/>
		<path class="st1" d="M29.94,37.57h-0.08c-4.24,0-6.99-2.92-6.99-6.58c0-3.73,2.83-6.57,7.16-6.57s6.99,2.84,7.07,6.57
			C37.1,34.65,34.35,37.57,29.94,37.57z"/>
		<path class="st1" d="M81.89,80.82H69.23V60.46c0-5.11-1.83-8.6-6.41-8.6c-3.5,0-5.57,2.35-6.49,4.63
			c-0.33,0.81-0.42,1.94-0.42,3.08v21.25H43.26c0,0,0.17-34.49,0-38.06h12.65v5.39c1.68-2.59,4.68-6.29,11.4-6.29
			c8.33,0,14.57,5.44,14.57,17.12V80.82z"/>
	</g>
</g>
</svg>
