<?xml version="1.0" encoding="utf-8"?>
<!-- Generator: Adobe Illustrator 23.0.1, SVG Export Plug-In . SVG Version: 6.00 Build 0)  -->
<svg version="1.1" id="Calque_1" xmlns="http://www.w3.org/2000/svg" xmlns:xlink="http://www.w3.org/1999/xlink" x="0px" y="0px"
	 viewBox="0 0 105 105" style="enable-background:new 0 0 105 105;" xml:space="preserve">
<style type="text/css">
	.st0{fill:#FFFFFF;stroke:#000000;stroke-miterlimit:10;}
</style>
<g>
	<path class="st0" d="M-0.1,104.5c0-35,0-70.1,0-105.1c35,0,70.1,0,105.1,0c0,35,0,70.1,0,105.1C70,104.5,35,104.5-0.1,104.5z
		 M56.2,80.2c0-0.6,0-1.1,0-1.6c0-6.5,0-13,0-19.6c0-2.5,0.7-4.7,2.7-6.4c3.6-3,8.7-1.4,9.9,3c0.3,1.1,0.5,2.4,0.5,3.5
		c0,6.5,0.1,13,0,19.6c0,1.2,0.4,1.5,1.5,1.5c3.4-0.1,6.7-0.1,10.1,0c1.1,0,1.3-0.3,1.3-1.4c0-7.1,0.1-14.2-0.1-21.4
		c0-2.3-0.4-4.6-1-6.8c-1.6-5.4-5.3-8.7-10.9-9.5c-5.4-0.8-10.1,0.5-13.5,5.1c-0.1,0.2-0.3,0.3-0.6,0.6c0-1.8,0-3.3,0-4.8
		C55.9,42,55.9,42,55.8,42c-3.9,0-7.8-0.1-11.8,0c-0.2,0-0.7,0.6-0.7,0.9c0,2,0,4,0,6c0,10,0,19.9,0,29.9c0,0.5,0,0.9,0,1.4
		C47.7,80.2,51.8,80.2,56.2,80.2z M36.5,61.1c0-6,0-12,0-18c0-0.9-0.3-1.2-1.2-1.2c-3.5,0-7,0-10.4,0c-0.9,0-1.2,0.2-1.2,1.2
		c0,12,0,24,0,36c0,0.9,0.3,1.2,1.2,1.2c3.4,0,6.8-0.1,10.2,0c1.1,0,1.5-0.3,1.5-1.5C36.5,72.9,36.5,67,36.5,61.1z M30.2,36.9
		c2.5,0,4.8-0.8,6.2-3.3c1.9-3.2,0.8-7.4-2.4-9.2c-3.7-2-8.7-0.8-10.4,2.6C21.3,31.9,24.6,36.9,30.2,36.9z"/>
</g>
</svg>
