<?xml version="1.0" encoding="utf-8"?>
<!-- Generator: Adobe Illustrator 23.0.1, SVG Export Plug-In . SVG Version: 6.00 Build 0)  -->
<svg version="1.1" id="Calque_1" xmlns="http://www.w3.org/2000/svg" xmlns:xlink="http://www.w3.org/1999/xlink" x="0px" y="0px"
	 viewBox="0 0 105 105" style="enable-background:new 0 0 105 105;" xml:space="preserve">
<style type="text/css">
	.st0{fill:#339DC3;}
	.st1{fill:#F1F2F2;}
</style>
<g>
	<rect x="-0.01" y="0" class="st0" width="104.99" height="104.99"/>
	<g>
		<path class="st1" d="M86.33,31.5c-2.49,1.1-5.17,1.85-7.98,2.19c2.87-1.72,5.07-4.44,6.11-7.68c-2.68,1.59-5.66,2.75-8.82,3.37
			c-2.53-2.7-6.14-4.38-10.14-4.38c-7.67,0-13.89,6.22-13.89,13.89c0,1.09,0.12,2.15,0.36,3.16c-11.54-0.58-21.77-6.11-28.62-14.51
			c-1.2,2.05-1.88,4.44-1.88,6.98c0,4.82,2.45,9.07,6.18,11.56c-2.28-0.07-4.42-0.7-6.29-1.74c0,0.06,0,0.12,0,0.18
			c0,6.73,4.79,12.34,11.14,13.62c-1.16,0.32-2.39,0.49-3.66,0.49c-0.9,0-1.77-0.09-2.61-0.25c1.77,5.52,6.89,9.53,12.97,9.64
			c-4.75,3.73-10.74,5.95-17.25,5.95c-1.12,0-2.23-0.07-3.31-0.19C24.79,77.7,32.09,80,39.93,80c25.54,0,39.51-21.16,39.51-39.51
			c0-0.6-0.01-1.2-0.04-1.8C82.12,36.73,84.47,34.29,86.33,31.5L86.33,31.5z M86.33,31.5"/>
	</g>
</g>
</svg>
