<?xml version="1.0" encoding="utf-8"?>
<!-- Generator: Adobe Illustrator 23.0.1, SVG Export Plug-In . SVG Version: 6.00 Build 0)  -->
<svg version="1.1" id="Calque_1" xmlns="http://www.w3.org/2000/svg" xmlns:xlink="http://www.w3.org/1999/xlink" x="0px" y="0px"
	 viewBox="0 0 105 105" style="enable-background:new 0 0 105 105;" xml:space="preserve">
<style type="text/css">
	.st0{fill:#FFFFFF;stroke:#000000;stroke-miterlimit:10;}
</style>
<g>
	<path class="st0" d="M0-0.1c35,0,70.1,0,105.1,0c0,35,0,70.1,0,105.1c-35,0-70.1,0-105.1,0c0-0.6-0.1-1.3-0.1-1.9
		c0-33.7,0-67.4,0-101.2C-0.1,1.3,0,0.7,0-0.1z M19.4,74.2c0.3,0.2,0.5,0.3,0.8,0.5c7,4,14.5,5.7,22.6,5.2
		c11-0.7,20.1-5.2,27.2-13.6c6.3-7.5,9.4-16.3,9.4-26.1c0-1,0.4-1.7,1.1-2.3c1.6-1.4,3.1-3,4.6-4.6c0.3-0.3,0.5-0.7,0.8-1.2
		c-2.4,0.6-4.5,1.2-6.6,1.7c1-1.2,2-2.2,2.8-3.4c0.8-1.1,1.5-2.4,2.2-3.6c-0.1-0.1-0.2-0.2-0.4-0.3c-0.3,0.1-0.6,0.3-0.9,0.4
		c-1.6,0.6-3.2,1.3-4.8,1.9c-1.5,0.6-2.7,0.4-4.1-0.7c-4.3-3.6-10.5-4-15.4-1.2c-4.8,2.7-7.5,8.1-6.8,13.7c0.2,1.4,0,1.6-1.4,1.5
		C40,41,31.3,36.6,24.3,28.8c-0.3-0.3-0.6-0.6-1.1-1.1c-3,7.2-1.8,13.1,4,18.1C27.1,46,27,46.1,27,46.3c-1.8-0.5-3.6-0.9-5.6-1.4
		C22,51.8,25.6,56,31.9,58.2c0,0.1-0.1,0.3-0.1,0.4c-1.7,0.1-3.4,0.2-5.3,0.3c2.3,5.7,6.5,8.6,12.4,9.4
		C33.1,72.8,26.6,74.6,19.4,74.2z"/>
</g>
</svg>
